<svg width="512" height="512" viewBox="0 0 512 512" xmlns="http://www.w3.org/2000/svg">
  <defs>
    <linearGradient id="bg" x1="0%" y1="0%" x2="100%" y2="100%">
      <stop offset="0%" style="stop-color:#1a1a1a;stop-opacity:1" />
      <stop offset="100%" style="stop-color:#2c2c2c;stop-opacity:1" />
    </linearGradient>
    <linearGradient id="accent" x1="0%" y1="0%" x2="100%" y2="100%">
      <stop offset="0%" style="stop-color:#00d4ff;stop-opacity:1" />
      <stop offset="100%" style="stop-color:#0099cc;stop-opacity:1" />
    </linearGradient>
  </defs>
  
  <!-- Background -->
  <rect width="512" height="512" rx="80" fill="url(#bg)"/>
  
  <!-- Code brackets -->
  <g fill="url(#accent)">
    <rect x="120" y="160" width="20" height="192" rx="10"/>
    <rect x="372" y="160" width="20" height="192" rx="10"/>
    
    <!-- Code lines -->
    <rect x="160" y="180" width="120" height="8" rx="4"/>
    <rect x="160" y="200" width="80" height="8" rx="4"/>
    <rect x="160" y="220" width="140" height="8" rx="4"/>
    <rect x="160" y="240" width="100" height="8" rx="4"/>
    <rect x="160" y="260" width="130" height="8" rx="4"/>
    <rect x="160" y="280" width="90" height="8" rx="4"/>
    <rect x="160" y="300" width="110" height="8" rx="4"/>
    <rect x="160" y="320" width="70" height="8" rx="4"/>
    
    <!-- Cursor -->
    <rect x="160" y="340" width="4" height="12" rx="2"/>
  </g>
  
  <!-- Glow effect -->
  <circle cx="256" cy="256" r="200" fill="none" stroke="url(#accent)" stroke-width="2" opacity="0.3"/>
</svg> 